<?xml version="1.0" encoding="UTF-8"?>
<svg id="Capa_2" data-name="Capa 2" xmlns="http://www.w3.org/2000/svg" viewBox="0 0 922.83 225.37">
  <g id="Capa_1-2" data-name="Capa 1">
    <g>
      <path d="M107.21,15.32c31.2.22,59.1,7.51,75.05,32.47,13.07,20.09,13.07,57.72,0,77.8-21.34,36.14-72.56,32.87-110.88,32.47v59.42H0V15.32h107.21ZM95.57,107.52c22.14,2.36,33.89-22.27,18.38-36.61-8.27-7.49-31.62-4.49-42.58-5.05v41.66h24.2Z"/>
      <path d="M247.19,7.66c1.24,7.09-3.06,165.1,2.76,166.94,8.85,11.93,46.79-6.18,58.25-6.97l-3.06,37.98c-28.82,11.06-90.74,33-116.14,7.27-23.77-19.49-7.94-176.45-12.25-205.23h70.45Z"/>
      <path d="M330.51,225.14c-75.1,6.09-43.26-112.7-49.62-156.22h70.45v87.3c.16,9.8,2.05,16.52,11.64,16.85,11.91.09,13.79-13.04,13.78-22.97,0,0,0-81.17,0-81.17h70.45s0,106.24,0,106.24c3.35,10.08,17.49,10.4,21.3.49l2.59-6.75v53.18h-87.3l-1.53-32.47c-8.97,23.71-26.49,35.53-51.77,35.53Z"/>
      <path d="M471.1,222.08V68.92h63.41l1.53,38.29c5.92-28.69,33-51.21,60.96-37.68l-5.82,56.67c-18.44-7.06-50.64-3.36-49.62,22.36,0,0,0,73.51,0,73.51h-70.45Z"/>
      <g>
        <path d="M663.15,32.16c4.7,0,8.78-1.63,12.25-4.9,3.47-3.26,5.21-7.76,5.21-13.48,0-4.08-1.38-7.4-4.14-9.96-2.76-2.55-6.18-3.83-10.26-3.83-4.29,0-8.12,1.64-11.49,4.9-3.37,3.27-5.05,7.66-5.05,13.17,0,3.88,1.27,7.2,3.83,9.96,2.55,2.76,5.77,4.14,9.65,4.14Z"/>
        <path d="M837.9,161.43c-.51-1.02-1.38-1.53-2.6-1.53-2.04,0-3.48,1.33-4.29,3.98-9.4,25.94-18.38,38.9-26.95,38.9-5.72,0-7.46-4.8-5.21-14.4l28.79-123.14c.61-2.65-.51-3.98-3.37-3.98h-12.25c-2.25,0-3.68,1.12-4.29,3.37-3.06,13.28-6.95,26.65-11.64,40.13-4.7,13.48-9.91,26.34-15.62,38.6-5.72,12.25-11.49,23.18-17.31,32.78-5.82,9.6-11.39,17.15-16.69,22.67-5.31,5.51-10.01,8.27-14.09,8.27-6.54,0-7.86-7.05-3.98-21.14l24.51-88.83c3.26-11.64,3.68-20.83,1.23-27.57s-7.35-10.11-14.7-10.11c-12.46,0-23.51,9.35-29.31,19.73-7.17,12.82-12.09,26.21-17.26,39.96-5.5,14.61-11,29.23-16.51,43.84-4.83,12.82-9.9,26.04-19.44,35.87-2.83,2.91-7,5.65-10.7,3.98-2.31-1.04-3.65-3.6-3.94-6.12s.29-5.06.87-7.53c7.36-31.47,14.71-62.93,22.07-94.4,1.56-6.67,3.13-13.49,2.43-20.3-.31-3.01-1.08-6.03-2.77-8.53-2.58-3.84-7.13-6.11-11.74-6.51-4.61-.41-9.25.9-13.35,3.04-10.23,5.35-17.03,15.49-22.25,25.78-4.3,8.47-7.83,17.33-10.54,26.44-.39,1.32-.74,2.84,0,4,1,1.57,3.51,1.44,4.93.23s2.04-3.09,2.64-4.85c2.5-7.41,5.65-14.6,9.4-21.46,2.77-5.07,5.99-10.09,10.71-13.42,3.06-2.15,7.59-3.37,10.32-.81,2.32,2.16,2.1,5.84,1.59,8.97-.84,5.11-2.01,10.15-3.19,15.19-6.67,28.63-13.34,57.26-20.01,85.89-1.24,5.31-2.48,10.72-2.03,16.16.45,5.43,2.89,10.99,7.53,13.84,2.77,1.7,6.1,2.32,9.35,2.2,12.22-.45,22.12-10.43,28.51-19.99,5.9-8.81,9.74-18.8,13.54-28.7,5.77-15.03,11.53-30.06,17.3-45.09,5.23-13.64,9.26-28.36,17.19-40.75,4.8-7.15,9.54-10.72,14.24-10.72,2.86,0,4.69,1.64,5.51,4.9.81,3.27.41,7.86-1.22,13.78l-24.2,88.83c-3.06,11.23-3.22,20.27-.46,27.11,2.76,6.84,7.91,10.26,15.47,10.26,8.37,0,17.56-5.05,27.57-15.16,10-10.11,20.93-27.41,32.78-51.92.61-1.22,1.38-1.73,2.3-1.53.92.21,1.17,1.02.77,2.45l-7.96,34c-4.9,21.44,0,32.16,14.7,32.16,8.37,0,16.34-4.8,23.89-14.4,7.55-9.6,14.09-23.07,19.6-40.43.61-1.63.66-2.96.15-3.98Z"/>
      </g>
      <path d="M865.01,220.24c-6.74,0-13.84-1.02-21.29-3.06-7.46-2.04-13.12-4.59-17-7.66-1.43-1.22-2.04-3.06-1.84-5.51l6.74-40.13c.41-2.65,1.63-3.98,3.68-3.98,2.24,0,3.37,1.43,3.37,4.29l.61,14.7c.41,11.64,3.22,20.17,8.42,25.58,5.21,5.41,11.59,8.12,19.14,8.12,6.53,0,12.15-2.09,16.85-6.28,4.7-4.18,7.05-10.36,7.05-18.53,0-4.7-.72-9.04-2.14-13.02-1.43-3.98-3.68-8.27-6.74-12.86s-7.25-10.16-12.56-16.69c-6.94-8.98-12.1-16.69-15.47-23.13-3.37-6.43-5.05-13.12-5.05-20.06,0-12.86,4.03-23.17,12.1-30.94,8.06-7.76,18.33-11.64,30.78-11.64,5.51,0,10.87.82,16.08,2.45,5.21,1.64,9.54,4.09,13.02,7.35,1.84,1.43,2.45,3.27,1.84,5.51l-8.58,41.05c-.61,2.66-1.84,3.98-3.68,3.98s-2.96-1.43-3.37-4.29l-.92-14.7c-.82-12.25-2.4-21.03-4.75-26.34-2.35-5.31-7.2-7.96-14.55-7.96-6.54,0-11.85,2.25-15.93,6.74-4.09,4.49-6.13,9.91-6.13,16.23,0,6.74,1.84,12.92,5.51,18.53,3.68,5.62,8.68,12.71,15.01,21.29,8.37,11.03,14.04,19.81,17,26.34,2.96,6.54,4.44,13.17,4.44,19.91,0,8.58-1.89,16.23-5.67,22.97-3.78,6.74-8.84,12.05-15.16,15.93-6.33,3.88-13.28,5.82-20.83,5.82Z"/>
    </g>
  </g>
</svg>
